<svg xmlns="http://www.w3.org/2000/svg" version="1.1" xmlns:xlink="http://www.w3.org/1999/xlink" width="512" height="512" x="0" y="0" viewBox="0 0 100 100" style="enable-background:new 0 0 512 512" xml:space="preserve" class=""><g><linearGradient id="a"><stop offset="0" stop-color="#97e0ff"></stop><stop offset="1" stop-color="#1075ff"></stop></linearGradient><linearGradient xlink:href="#a" id="b" x1="17.878" x2="109.895" y1="-21.211" y2="79.629" gradientUnits="userSpaceOnUse"></linearGradient><linearGradient xlink:href="#a" id="c" x1="-.058" x2="91.959" y1="-4.844" y2="95.996" gradientUnits="userSpaceOnUse"></linearGradient><circle cx="81.812" cy="48.853" r="3.379" fill="url(#b)" opacity="1" data-original="url(#b)"></circle><path fill="url(#c)" d="M93.04 35.46H6.965a4.45 4.45 0 0 0-4.46 4.46V59.96c-.121 2.532 1.928 4.581 4.46 4.581h86.073a4.45 4.45 0 0 0 4.461-4.46V39.92a4.45 4.45 0 0 0-4.46-4.46zM65.58 57.91H11.854a2.838 2.838 0 0 1-2.838-2.84V44.93a2.838 2.838 0 0 1 2.838-2.84H65.58a2.838 2.838 0 0 1 2.839 2.84v10.14a2.838 2.838 0 0 1-2.839 2.84zm24.673-.604c-.362.362-.723.483-1.206.483-.482 0-.844-.121-1.205-.483l-2.773-2.785c-.965.603-2.05 1.085-3.376 1.085a6.743 6.743 0 0 1-6.764-6.751c0-3.738 3.135-6.764 6.884-6.764a6.75 6.75 0 0 1 6.752 6.764c0 1.205-.482 2.29-1.085 3.376l2.773 2.772c.615.603.615 1.7 0 2.303z" opacity="1" data-original="url(#c)"></path></g></svg>